<svg width="1024" height="1024" viewBox="0 0 1024 1024" xmlns="http://www.w3.org/2000/svg" role="img" aria-labelledby="title desc">
  <title id="title">Apoint Scout Mark</title>
  <desc id="desc">Crisp metallic A with compass diamond emblem.</desc>
  <defs>
    <linearGradient id="metalBase" x1="96" y1="346" x2="932" y2="934" gradientUnits="userSpaceOnUse">
      <stop offset="0" stop-color="#fafdff"/>
      <stop offset="0.26" stop-color="#e9edf4"/>
      <stop offset="0.62" stop-color="#c6cedc"/>
      <stop offset="1" stop-color="#eef2f9"/>
    </linearGradient>
    <linearGradient id="metalDepth" x1="156" y1="374" x2="870" y2="904" gradientUnits="userSpaceOnUse">
      <stop offset="0" stop-color="#ffffff" stop-opacity="0.38"/>
      <stop offset="0.48" stop-color="#8f9cb1" stop-opacity="0.12"/>
      <stop offset="1" stop-color="#0f1725" stop-opacity="0.34"/>
    </linearGradient>
    <pattern id="brush" width="12" height="12" patternUnits="userSpaceOnUse" patternTransform="rotate(-18)">
      <line x1="0" y1="0" x2="0" y2="12" stroke="#ffffff" stroke-opacity="0.1" stroke-width="1"/>
      <line x1="6" y1="0" x2="6" y2="12" stroke="#ffffff" stroke-opacity="0.06" stroke-width="1"/>
    </pattern>
    <linearGradient id="diamondBlue" x1="358" y1="92" x2="722" y2="554" gradientUnits="userSpaceOnUse">
      <stop offset="0" stop-color="#12467f"/>
      <stop offset="1" stop-color="#072a58"/>
    </linearGradient>
    <linearGradient id="whiteBevel" x1="300" y1="80" x2="764" y2="620" gradientUnits="userSpaceOnUse">
      <stop offset="0" stop-color="#ffffff"/>
      <stop offset="1" stop-color="#d8e0ee"/>
    </linearGradient>
    <linearGradient id="needleWhite" x1="390" y1="420" x2="620" y2="252" gradientUnits="userSpaceOnUse">
      <stop offset="0" stop-color="#f9fbff"/>
      <stop offset="1" stop-color="#dbe3ef"/>
    </linearGradient>
    <linearGradient id="needleRed" x1="506" y1="347" x2="620" y2="252" gradientUnits="userSpaceOnUse">
      <stop offset="0" stop-color="#ca1932"/>
      <stop offset="1" stop-color="#9f1126"/>
    </linearGradient>
    <filter id="softShadow" x="-20%" y="-20%" width="140%" height="140%">
      <feDropShadow dx="0" dy="6" stdDeviation="6" flood-color="#000000" flood-opacity="0.34"/>
    </filter>
    <clipPath id="aClip">
      <path d="M178 948 L314 552 L434 552 L320 916 L184 952 Z"/>
      <path d="M846 948 L710 552 L590 552 L704 916 L840 952 Z"/>
      <path d="M72 692 L952 692 L926 746 L98 746 Z"/>
      <path d="M28 982 L452 982 L402 956 L112 956 Z"/>
      <path d="M996 982 L572 982 L622 956 L912 956 Z"/>
    </clipPath>
  </defs>

  <g filter="url(#softShadow)">
    <path d="M178 948 L314 552 L434 552 L320 916 L184 952 Z" fill="url(#metalBase)"/>
    <path d="M846 948 L710 552 L590 552 L704 916 L840 952 Z" fill="url(#metalBase)"/>
    <path d="M72 692 L952 692 L926 746 L98 746 Z" fill="url(#metalBase)"/>
    <path d="M28 982 L452 982 L402 956 L112 956 Z" fill="url(#metalBase)"/>
    <path d="M996 982 L572 982 L622 956 L912 956 Z" fill="url(#metalBase)"/>
  </g>

  <g clip-path="url(#aClip)">
    <rect x="0" y="500" width="1024" height="524" fill="url(#metalDepth)"/>
    <rect x="0" y="500" width="1024" height="524" fill="url(#brush)" opacity="0.95"/>
    <path d="M114 690 L910 690 L884 704 L140 704 Z" fill="#ffffff" opacity="0.26"/>
    <path d="M126 744 L898 744 L880 758 L144 758 Z" fill="#263245" opacity="0.24"/>
  </g>

  <g filter="url(#softShadow)">
    <path d="M512 64 L782 334 L512 604 L242 334 Z" fill="url(#diamondBlue)" stroke="url(#whiteBevel)" stroke-width="16" stroke-linejoin="round"/>
    <path d="M512 100 L746 334 L512 568 L278 334 Z" fill="none" stroke="#eaf0fb" stroke-width="6" stroke-linejoin="round"/>

    <path d="M460 106 A52 52 0 0 0 564 106" fill="none" stroke="#eaf0fb" stroke-width="9" stroke-linecap="round"/>
    <path d="M280 292 A42 42 0 0 0 280 376" fill="none" stroke="#eaf0fb" stroke-width="9" stroke-linecap="round"/>
    <path d="M744 292 A42 42 0 0 1 744 376" fill="none" stroke="#eaf0fb" stroke-width="9" stroke-linecap="round"/>
    <path d="M463 510 L561 510 L561 532 L512 568 L463 532 Z" fill="#0e305f" stroke="#eaf0fb" stroke-width="7" stroke-linejoin="round"/>

    <circle cx="512" cy="334" r="112" fill="none" stroke="#f2f6fd" stroke-width="13"/>
    <line x1="512" y1="186" x2="512" y2="232" stroke="#f2f6fd" stroke-width="12" stroke-linecap="round"/>
    <line x1="512" y1="436" x2="512" y2="482" stroke="#f2f6fd" stroke-width="12" stroke-linecap="round"/>
    <line x1="354" y1="334" x2="400" y2="334" stroke="#f2f6fd" stroke-width="12" stroke-linecap="round"/>
    <line x1="624" y1="334" x2="670" y2="334" stroke="#f2f6fd" stroke-width="12" stroke-linecap="round"/>

    <line x1="394" y1="416" x2="620" y2="252" stroke="url(#needleWhite)" stroke-width="20" stroke-linecap="round"/>
    <line x1="512" y1="334" x2="620" y2="252" stroke="url(#needleRed)" stroke-width="16" stroke-linecap="round"/>
    <path d="M620 252 L586 260 L600 228 Z" fill="url(#needleRed)"/>
    <path d="M394 416 L428 408 L414 440 Z" fill="url(#needleWhite)"/>

    <circle cx="512" cy="334" r="20" fill="#07264d" stroke="#f2f6fd" stroke-width="7"/>
    <circle cx="512" cy="334" r="7" fill="#f2f6fd"/>
  </g>
</svg>
