<svg width="1024" height="1024" viewBox="0 0 1024 1024" xmlns="http://www.w3.org/2000/svg" role="img" aria-labelledby="title desc">
  <title id="title">APOINT SCOUT Logo</title>
  <desc id="desc">Compass over stylized A mark.</desc>
  <defs>
    <linearGradient id="metal" x1="80" y1="560" x2="940" y2="980" gradientUnits="userSpaceOnUse">
      <stop offset="0" stop-color="#edf2fb"/>
      <stop offset="1" stop-color="#d7deea"/>
    </linearGradient>
    <linearGradient id="fieldBlue" x1="266" y1="136" x2="764" y2="576" gradientUnits="userSpaceOnUse">
      <stop offset="0" stop-color="#124582"/>
      <stop offset="1" stop-color="#07244a"/>
    </linearGradient>
  </defs>

  <g>
    <path d="M220 300 L420 300 L332 960 L94 960 Z" fill="url(#metal)"/>
    <path d="M604 300 L804 300 L930 960 L692 960 Z" fill="url(#metal)"/>
    <rect x="8" y="722" width="1008" height="64" fill="url(#metal)"/>
    <path d="M8 1004 L374 1004 L374 952 L252 932 L118 932 L8 972 Z" fill="url(#metal)"/>
    <path d="M650 952 L650 1004 L1016 1004 L1016 972 L906 932 L772 932 Z" fill="url(#metal)"/>
  </g>

  <g>
    <path d="M512 130 L784 360 L512 592 L240 360 Z" fill="url(#fieldBlue)" stroke="#eef4ff" stroke-width="15" stroke-linejoin="round"/>
    <path d="M512 168 L740 360 L512 556 L284 360 Z" fill="none" stroke="#ebf2ff" stroke-width="7" stroke-linejoin="round"/>

    <path d="M472 180 A72 72 0 0 0 552 180" fill="none" stroke="#edf3ff" stroke-width="10" stroke-linecap="round"/>
    <path d="M336 298 A48 48 0 0 0 336 382" fill="none" stroke="#edf3ff" stroke-width="10" stroke-linecap="round"/>
    <path d="M688 298 A48 48 0 0 1 688 382" fill="none" stroke="#edf3ff" stroke-width="10" stroke-linecap="round"/>
    <path d="M480 474 A42 42 0 0 0 544 474" fill="none" stroke="#edf3ff" stroke-width="10" stroke-linecap="round"/>

    <circle cx="512" cy="340" r="98" fill="none" stroke="#edf3ff" stroke-width="12"/>
    <line x1="512" y1="222" x2="512" y2="264" stroke="#edf3ff" stroke-width="11" stroke-linecap="round"/>
    <line x1="512" y1="416" x2="512" y2="458" stroke="#edf3ff" stroke-width="11" stroke-linecap="round"/>
    <line x1="392" y1="340" x2="434" y2="340" stroke="#edf3ff" stroke-width="11" stroke-linecap="round"/>
    <line x1="590" y1="340" x2="632" y2="340" stroke="#edf3ff" stroke-width="11" stroke-linecap="round"/>

    <line x1="422" y1="404" x2="628" y2="264" stroke="#f4f8ff" stroke-width="18" stroke-linecap="round"/>
    <line x1="526" y1="336" x2="628" y2="264" stroke="#b90f29" stroke-width="14" stroke-linecap="round"/>
    <circle cx="512" cy="340" r="13" fill="#0a2a4f" stroke="#edf3ff" stroke-width="6"/>
    <circle cx="512" cy="340" r="4.5" fill="#edf3ff"/>
  </g>
</svg>
