<svg width="256" height="256" viewBox="0 0 256 256" xmlns="http://www.w3.org/2000/svg" role="img" aria-label="APOINT SCOUT Favicon">
  <defs>
    <linearGradient id="favNavy" x1="30" y1="18" x2="229" y2="246" gradientUnits="userSpaceOnUse">
      <stop offset="0" stop-color="#13396d"/>
      <stop offset="1" stop-color="#081d39"/>
    </linearGradient>
    <linearGradient id="favMetal" x1="58" y1="95" x2="194" y2="246" gradientUnits="userSpaceOnUse">
      <stop offset="0" stop-color="#f8f9fc"/>
      <stop offset="1" stop-color="#c3ccda"/>
    </linearGradient>
  </defs>

  <rect x="6" y="6" width="244" height="244" rx="56" fill="url(#favNavy)"/>
  <path fill="url(#favMetal)" d="M58 210L90 122H109L77 210H58Z"/>
  <path fill="url(#favMetal)" d="M150 210L118 122H137L169 210H150Z"/>
  <rect x="70" y="194" width="98" height="15" rx="2" fill="url(#favMetal)"/>
  <path fill="url(#favMetal)" d="M90 178L95 163H141L147 178H90Z"/>

  <g transform="translate(0 -2)">
    <path d="M118 40L158 72L118 104L78 72L118 40Z" fill="#123561" stroke="#edf2f8" stroke-width="4.5" stroke-linejoin="round"/>
    <path d="M118 54C129 54 138 62 138 73C138 84 129 93 118 93C107 93 99 84 99 73C99 62 107 54 118 54Z" fill="none" stroke="#edf2f8" stroke-width="3.8"/>
    <polygon points="118,73 132,64 123,78" fill="#f7f9fc"/>
    <polygon points="118,73 104,82 113,68" fill="#bf1220"/>
    <circle cx="118" cy="73" r="2.4" fill="#f7f9fc"/>
  </g>
</svg>
