<svg width="1024" height="1024" viewBox="0 0 1024 1024" xmlns="http://www.w3.org/2000/svg" role="img" aria-labelledby="title desc">
  <title id="title">APOINT SCOUT Icon</title>
  <desc id="desc">Compass over metallic A mark with crossbar through both legs.</desc>
  <defs>
    <linearGradient id="metal" x1="150" y1="360" x2="860" y2="930" gradientUnits="userSpaceOnUse">
      <stop offset="0" stop-color="#ffffff"/>
      <stop offset="0.45" stop-color="#eef2f7"/>
      <stop offset="0.8" stop-color="#d7dde6"/>
      <stop offset="1" stop-color="#b7c0cc"/>
    </linearGradient>
    <linearGradient id="diamondBlue" x1="340" y1="180" x2="690" y2="500" gradientUnits="userSpaceOnUse">
      <stop offset="0" stop-color="#0f3a6e"/>
      <stop offset="1" stop-color="#071a32"/>
    </linearGradient>
    <filter id="drop" x="-20%" y="-20%" width="140%" height="140%">
      <feDropShadow dx="0" dy="12" stdDeviation="12" flood-color="#000" flood-opacity="0.35"/>
    </filter>
  </defs>

  <g filter="url(#drop)">
    <line x1="238" y1="920" x2="452" y2="460" stroke="url(#metal)" stroke-width="86" stroke-linecap="square"/>
    <line x1="786" y1="920" x2="572" y2="460" stroke="url(#metal)" stroke-width="86" stroke-linecap="square"/>
    <line x1="130" y1="760" x2="894" y2="760" stroke="url(#metal)" stroke-width="64" stroke-linecap="square"/>
  </g>

  <g filter="url(#drop)">
    <path d="M512 170L730 344L512 518L294 344L512 170Z" fill="url(#diamondBlue)" stroke="#eef3f8" stroke-width="18" stroke-linejoin="round"/>
    <circle cx="512" cy="344" r="112" fill="none" stroke="#edf3f8" stroke-width="12"/>
    <line x1="512" y1="206" x2="512" y2="236" stroke="#edf3f8" stroke-width="10" stroke-linecap="round"/>
    <line x1="512" y1="452" x2="512" y2="482" stroke="#edf3f8" stroke-width="10" stroke-linecap="round"/>
    <line x1="374" y1="344" x2="404" y2="344" stroke="#edf3f8" stroke-width="10" stroke-linecap="round"/>
    <line x1="620" y1="344" x2="650" y2="344" stroke="#edf3f8" stroke-width="10" stroke-linecap="round"/>
    <polygon points="512,344 598,286 540,372" fill="#f4f8fd"/>
    <polygon points="512,344 426,402 484,316" fill="#b40d24"/>
    <circle cx="512" cy="344" r="9" fill="#f4f8fd"/>
  </g>
</svg>
