<svg width="1024" height="1024" viewBox="0 0 1024 1024" xmlns="http://www.w3.org/2000/svg" role="img" aria-labelledby="title desc">
  <title id="title">A-POINT Scout App Icon</title>
  <desc id="desc">Dark navy rounded square with slab serif A and diamond compass mark.</desc>
  <defs>
    <linearGradient id="bg" x1="120" y1="80" x2="920" y2="940" gradientUnits="userSpaceOnUse">
      <stop offset="0" stop-color="#123a61"/>
      <stop offset="1" stop-color="#0a1f38"/>
    </linearGradient>
    <linearGradient id="metal" x1="320" y1="270" x2="690" y2="820" gradientUnits="userSpaceOnUse">
      <stop offset="0" stop-color="#b7d3f2"/>
      <stop offset="0.5" stop-color="#8cb0d7"/>
      <stop offset="1" stop-color="#678fbe"/>
    </linearGradient>
  </defs>

  <rect x="20" y="20" width="984" height="984" rx="182" fill="url(#bg)"/>

  <path fill="url(#metal)" d="M260 772L369 410H438L345 772H260ZM680 772L588 410H657L766 772H680ZM355 642L372 575H659L675 642H355Z"/>
  <rect x="320" y="715" width="409" height="58" rx="8" fill="url(#metal)"/>

  <g transform="translate(0 -18)">
    <path d="M512 176L681 310L512 444L343 310L512 176Z" fill="none" stroke="url(#metal)" stroke-width="20" stroke-linejoin="round"/>
    <path d="M512 237C551 237 582 267 582 307C582 346 551 377 512 377C472 377 442 346 442 307C442 267 472 237 512 237Z" fill="none" stroke="url(#metal)" stroke-width="14"/>
    <path d="M512 255L536 307L512 360L488 307L512 255Z" fill="url(#metal)"/>
    <circle cx="512" cy="307" r="7" fill="#11365a"/>
    <line x1="512" y1="215" x2="512" y2="236" stroke="url(#metal)" stroke-width="10" stroke-linecap="round"/>
    <line x1="419" y1="307" x2="440" y2="307" stroke="url(#metal)" stroke-width="10" stroke-linecap="round"/>
    <line x1="584" y1="307" x2="605" y2="307" stroke="url(#metal)" stroke-width="10" stroke-linecap="round"/>
    <line x1="512" y1="378" x2="512" y2="398" stroke="url(#metal)" stroke-width="10" stroke-linecap="round"/>
  </g>
</svg>
