<svg width="1024" height="1024" viewBox="0 0 1024 1024" xmlns="http://www.w3.org/2000/svg" role="img" aria-labelledby="title desc">
  <title id="title">APOINT SCOUT Icon</title>
  <desc id="desc">Compass over stylized A mark.</desc>
  <defs>
    <linearGradient id="metal" x1="80" y1="560" x2="940" y2="980" gradientUnits="userSpaceOnUse">
      <stop offset="0" stop-color="#edf2fb"/>
      <stop offset="1" stop-color="#d7deea"/>
    </linearGradient>
    <linearGradient id="fieldBlue" x1="266" y1="120" x2="764" y2="560" gradientUnits="userSpaceOnUse">
      <stop offset="0" stop-color="#124582"/>
      <stop offset="1" stop-color="#07244a"/>
    </linearGradient>
  </defs>

  <g>
    <path d="M300 560 L430 560 L342 958 L170 958 Z" fill="url(#metal)"/>
    <path d="M594 560 L724 560 L854 958 L682 958 Z" fill="url(#metal)"/>
    <rect x="36" y="730" width="952" height="54" fill="url(#metal)"/>
    <path d="M18 1004 L350 1004 L350 958 L250 940 L112 940 L18 980 Z" fill="url(#metal)"/>
    <path d="M674 1004 L1006 1004 L1006 980 L912 940 L774 940 L674 958 Z" fill="url(#metal)"/>
  </g>

  <g>
    <path d="M512 114 L784 344 L512 576 L240 344 Z" fill="url(#fieldBlue)" stroke="#eef4ff" stroke-width="15" stroke-linejoin="round"/>
    <path d="M512 152 L740 344 L512 540 L284 344 Z" fill="none" stroke="#ebf2ff" stroke-width="7" stroke-linejoin="round"/>

    <path d="M472 164 A72 72 0 0 0 552 164" fill="none" stroke="#edf3ff" stroke-width="10" stroke-linecap="round"/>
    <path d="M336 282 A48 48 0 0 0 336 366" fill="none" stroke="#edf3ff" stroke-width="10" stroke-linecap="round"/>
    <path d="M688 282 A48 48 0 0 1 688 366" fill="none" stroke="#edf3ff" stroke-width="10" stroke-linecap="round"/>
    <path d="M480 458 A42 42 0 0 0 544 458" fill="none" stroke="#edf3ff" stroke-width="10" stroke-linecap="round"/>

    <circle cx="512" cy="324" r="98" fill="none" stroke="#edf3ff" stroke-width="12"/>
    <line x1="512" y1="206" x2="512" y2="248" stroke="#edf3ff" stroke-width="11" stroke-linecap="round"/>
    <line x1="512" y1="400" x2="512" y2="442" stroke="#edf3ff" stroke-width="11" stroke-linecap="round"/>
    <line x1="392" y1="324" x2="434" y2="324" stroke="#edf3ff" stroke-width="11" stroke-linecap="round"/>
    <line x1="590" y1="324" x2="632" y2="324" stroke="#edf3ff" stroke-width="11" stroke-linecap="round"/>

    <line x1="422" y1="388" x2="628" y2="248" stroke="#f4f8ff" stroke-width="18" stroke-linecap="round"/>
    <line x1="526" y1="320" x2="628" y2="248" stroke="#b90f29" stroke-width="14" stroke-linecap="round"/>
    <circle cx="512" cy="324" r="13" fill="#0a2a4f" stroke="#edf3ff" stroke-width="6"/>
    <circle cx="512" cy="324" r="4.5" fill="#edf3ff"/>
  </g>
</svg>
