<svg width="1024" height="1024" viewBox="0 0 1024 1024" xmlns="http://www.w3.org/2000/svg" role="img" aria-labelledby="title desc">
  <title id="title">APOINT SCOUT Logo</title>
  <desc id="desc">Compass over stylized A logo mark.</desc>
  <defs>
    <linearGradient id="bg" x1="120" y1="120" x2="900" y2="930" gradientUnits="userSpaceOnUse">
      <stop offset="0" stop-color="#041738"/>
      <stop offset="0.55" stop-color="#03102d"/>
      <stop offset="1" stop-color="#020a1e"/>
    </linearGradient>
    <linearGradient id="metal" x1="210" y1="420" x2="790" y2="940" gradientUnits="userSpaceOnUse">
      <stop offset="0" stop-color="#f9fbff"/>
      <stop offset="0.52" stop-color="#e4ebf4"/>
      <stop offset="1" stop-color="#cad2df"/>
    </linearGradient>
    <linearGradient id="diamondBlue" x1="380" y1="150" x2="700" y2="500" gradientUnits="userSpaceOnUse">
      <stop offset="0" stop-color="#124178"/>
      <stop offset="1" stop-color="#072445"/>
    </linearGradient>
    <filter id="shadow" x="-25%" y="-25%" width="160%" height="160%">
      <feDropShadow dx="0" dy="10" stdDeviation="12" flood-color="#000" flood-opacity="0.42"/>
    </filter>
  </defs>

  <rect x="86" y="86" width="852" height="852" rx="122" fill="url(#bg)" stroke="#35557d" stroke-width="8"/>

  <g filter="url(#shadow)">
    <path d="M346 468 L456 468 L330 842 L156 904 L38 926 L38 946 L400 946 L400 900 L214 900 Z" fill="url(#metal)"/>
    <path d="M568 468 L678 468 L810 900 L624 900 L624 946 L986 946 L986 926 L868 904 L694 842 Z" fill="url(#metal)"/>
    <rect x="84" y="654" width="856" height="44" fill="url(#metal)"/>
  </g>

  <g filter="url(#shadow)">
    <path d="M512 122 L748 324 L512 526 L276 324 Z" fill="url(#diamondBlue)" stroke="#eef4ff" stroke-width="14" stroke-linejoin="round"/>
    <path d="M512 156 L712 324 L512 492 L312 324 Z" fill="none" stroke="#edf4ff" stroke-opacity="0.78" stroke-width="6" stroke-linejoin="round"/>

    <path d="M465 167 A74 74 0 0 0 559 167" fill="none" stroke="#edf4ff" stroke-width="9" stroke-linecap="round"/>
    <path d="M336 281 A48 48 0 0 0 336 367" fill="none" stroke="#edf4ff" stroke-width="9" stroke-linecap="round"/>
    <path d="M688 281 A48 48 0 0 1 688 367" fill="none" stroke="#edf4ff" stroke-width="9" stroke-linecap="round"/>
    <path d="M474 460 A44 44 0 0 0 550 460" fill="none" stroke="#edf4ff" stroke-width="9" stroke-linecap="round"/>

    <circle cx="512" cy="324" r="92" fill="none" stroke="#edf4ff" stroke-width="10"/>
    <line x1="512" y1="210" x2="512" y2="246" stroke="#edf4ff" stroke-width="9" stroke-linecap="round"/>
    <line x1="512" y1="402" x2="512" y2="438" stroke="#edf4ff" stroke-width="9" stroke-linecap="round"/>
    <line x1="398" y1="324" x2="434" y2="324" stroke="#edf4ff" stroke-width="9" stroke-linecap="round"/>
    <line x1="590" y1="324" x2="626" y2="324" stroke="#edf4ff" stroke-width="9" stroke-linecap="round"/>

    <line x1="430" y1="388" x2="610" y2="260" stroke="#f7fbff" stroke-width="16" stroke-linecap="round"/>
    <line x1="516" y1="326" x2="610" y2="260" stroke="#b30f27" stroke-width="14" stroke-linecap="round"/>
    <circle cx="512" cy="324" r="12" fill="#082545" stroke="#eef4ff" stroke-width="5"/>
    <circle cx="512" cy="324" r="4" fill="#eef4ff"/>
  </g>
</svg>
