<svg width="1024" height="1024" viewBox="0 0 1024 1024" xmlns="http://www.w3.org/2000/svg" role="img" aria-labelledby="title desc">
  <title id="title">APOINT SCOUT App Icon</title>
  <desc id="desc">Navy square with metallic A and compass diamond mark.</desc>
  <defs>
    <linearGradient id="bg" x1="80" y1="60" x2="950" y2="980" gradientUnits="userSpaceOnUse">
      <stop offset="0" stop-color="#113565"/>
      <stop offset="1" stop-color="#07182f"/>
    </linearGradient>
    <linearGradient id="metal" x1="268" y1="282" x2="764" y2="820" gradientUnits="userSpaceOnUse">
      <stop offset="0" stop-color="#f8f9fb"/>
      <stop offset="0.6" stop-color="#dde2e9"/>
      <stop offset="1" stop-color="#bbc5d3"/>
    </linearGradient>
  </defs>

  <rect x="24" y="24" width="976" height="976" rx="184" fill="url(#bg)"/>

  <path fill="url(#metal)" d="M260 790L383 444H454L332 790H260Z"/>
  <path fill="url(#metal)" d="M685 790L565 444H635L757 790H685Z"/>
  <rect x="304" y="732" width="420" height="58" rx="8" fill="url(#metal)"/>
  <path fill="url(#metal)" d="M390 671L408 607H616L634 671H390Z"/>

  <g transform="translate(0 -12)">
    <path d="M512 196L690 338L512 480L334 338L512 196Z" fill="#0f2f57" stroke="#eff3f8" stroke-width="18" stroke-linejoin="round"/>
    <path d="M512 254C556 254 591 289 591 333C591 377 556 412 512 412C468 412 433 377 433 333C433 289 468 254 512 254Z" fill="none" stroke="#eff3f8" stroke-width="13"/>
    <line x1="512" y1="230" x2="512" y2="248" stroke="#eff3f8" stroke-width="9" stroke-linecap="round"/>
    <line x1="406" y1="333" x2="424" y2="333" stroke="#eff3f8" stroke-width="9" stroke-linecap="round"/>
    <line x1="600" y1="333" x2="618" y2="333" stroke="#eff3f8" stroke-width="9" stroke-linecap="round"/>
    <line x1="512" y1="417" x2="512" y2="436" stroke="#eff3f8" stroke-width="9" stroke-linecap="round"/>
    <polygon points="512,333 571,295 531,356" fill="#f7f8fb"/>
    <polygon points="512,333 454,371 495,311" fill="#bf1220"/>
    <circle cx="512" cy="333" r="8" fill="#f7f8fb"/>
  </g>
</svg>
