<svg width="1024" height="1024" viewBox="0 0 1024 1024" xmlns="http://www.w3.org/2000/svg" role="img" aria-labelledby="title desc">
  <title id="title">APOINT SCOUT Icon</title>
  <desc id="desc">Compass badge on top of stylized metallic A with a crossbar through both legs.</desc>
  <defs>
    <linearGradient id="bg" x1="140" y1="120" x2="900" y2="940" gradientUnits="userSpaceOnUse">
      <stop offset="0" stop-color="#041738"/>
      <stop offset="0.55" stop-color="#03102c"/>
      <stop offset="1" stop-color="#020a1d"/>
    </linearGradient>
    <linearGradient id="metal" x1="200" y1="360" x2="720" y2="900" gradientUnits="userSpaceOnUse">
      <stop offset="0" stop-color="#f9fcff"/>
      <stop offset="0.46" stop-color="#e4ebf5"/>
      <stop offset="1" stop-color="#cdd6e4"/>
    </linearGradient>
    <linearGradient id="badgeBlue" x1="430" y1="180" x2="590" y2="360" gradientUnits="userSpaceOnUse">
      <stop offset="0" stop-color="#184784"/>
      <stop offset="1" stop-color="#082245"/>
    </linearGradient>
    <filter id="shadow" x="-20%" y="-20%" width="150%" height="150%">
      <feDropShadow dx="0" dy="12" stdDeviation="14" flood-color="#000000" flood-opacity="0.38"/>
    </filter>
  </defs>

  <rect x="88" y="88" width="848" height="848" rx="122" fill="url(#bg)" stroke="#38557d" stroke-width="8"/>

  <g filter="url(#shadow)">
    <line x1="352" y1="396" x2="244" y2="792" stroke="url(#metal)" stroke-width="70" stroke-linecap="square"/>
    <line x1="528" y1="396" x2="636" y2="792" stroke="url(#metal)" stroke-width="70" stroke-linecap="square"/>
    <line x1="198" y1="626" x2="684" y2="626" stroke="url(#metal)" stroke-width="56" stroke-linecap="square"/>
    <line x1="198" y1="614" x2="684" y2="614" stroke="#ffffff" stroke-opacity="0.35" stroke-width="9" stroke-linecap="square"/>
  </g>

  <g filter="url(#shadow)">
    <path d="M512 192L592 254L512 316L432 254L512 192Z" fill="url(#badgeBlue)" stroke="#eef5ff" stroke-width="9" stroke-linejoin="round"/>
    <circle cx="512" cy="254" r="46" fill="none" stroke="#eef5ff" stroke-width="8"/>
    <line x1="512" y1="200" x2="512" y2="214" stroke="#eef5ff" stroke-width="7" stroke-linecap="round"/>
    <line x1="512" y1="294" x2="512" y2="308" stroke="#eef5ff" stroke-width="7" stroke-linecap="round"/>
    <line x1="458" y1="254" x2="472" y2="254" stroke="#eef5ff" stroke-width="7" stroke-linecap="round"/>
    <line x1="552" y1="254" x2="566" y2="254" stroke="#eef5ff" stroke-width="7" stroke-linecap="round"/>
    <polygon points="512,254 554,226 526,268" fill="#f8fbff"/>
    <polygon points="512,254 470,282 498,240" fill="#c3132d"/>
    <circle cx="512" cy="254" r="6" fill="#f8fbff"/>
  </g>
</svg>
