<svg width="1024" height="1024" viewBox="0 0 1024 1024" xmlns="http://www.w3.org/2000/svg" role="img" aria-labelledby="title desc">
  <title id="title">APOINT SCOUT Icon</title>
  <desc id="desc">Compass over stylized A mark.</desc>
  <defs>
    <linearGradient id="metal" x1="80" y1="560" x2="944" y2="968" gradientUnits="userSpaceOnUse">
      <stop offset="0" stop-color="#edf2fb"/>
      <stop offset="1" stop-color="#d7deea"/>
    </linearGradient>
    <linearGradient id="fieldBlue" x1="258" y1="118" x2="768" y2="564" gradientUnits="userSpaceOnUse">
      <stop offset="0" stop-color="#124582"/>
      <stop offset="1" stop-color="#07244a"/>
    </linearGradient>
  </defs>

  <g>
    <path d="M336 560 L468 560 L332 902 L154 956 L36 956 L36 928 L188 892 Z" fill="url(#metal)"/>
    <path d="M556 560 L688 560 L836 892 L988 928 L988 956 L870 956 L692 902 Z" fill="url(#metal)"/>
    <rect x="0" y="732" width="1024" height="54" fill="url(#metal)"/>
    <path d="M0 956 L352 956 L352 1008 L0 1008 Z" fill="url(#metal)"/>
    <path d="M672 956 L1024 990 L1024 1008 L672 1008 Z" fill="url(#metal)"/>
  </g>

  <g>
    <path d="M512 112 L786 344 L512 578 L238 344 Z" fill="url(#fieldBlue)" stroke="#eef4ff" stroke-width="15" stroke-linejoin="round"/>
    <path d="M512 150 L742 344 L512 542 L282 344 Z" fill="none" stroke="#ebf2ff" stroke-width="7" stroke-linejoin="round"/>

    <path d="M470 162 A74 74 0 0 0 554 162" fill="none" stroke="#edf3ff" stroke-width="10" stroke-linecap="round"/>
    <path d="M334 282 A48 48 0 0 0 334 366" fill="none" stroke="#edf3ff" stroke-width="10" stroke-linecap="round"/>
    <path d="M690 282 A48 48 0 0 1 690 366" fill="none" stroke="#edf3ff" stroke-width="10" stroke-linecap="round"/>
    <path d="M478 458 A44 44 0 0 0 546 458" fill="none" stroke="#edf3ff" stroke-width="10" stroke-linecap="round"/>

    <circle cx="512" cy="324" r="98" fill="none" stroke="#edf3ff" stroke-width="12"/>
    <line x1="512" y1="206" x2="512" y2="248" stroke="#edf3ff" stroke-width="11" stroke-linecap="round"/>
    <line x1="512" y1="400" x2="512" y2="442" stroke="#edf3ff" stroke-width="11" stroke-linecap="round"/>
    <line x1="392" y1="324" x2="434" y2="324" stroke="#edf3ff" stroke-width="11" stroke-linecap="round"/>
    <line x1="590" y1="324" x2="632" y2="324" stroke="#edf3ff" stroke-width="11" stroke-linecap="round"/>

    <line x1="420" y1="390" x2="630" y2="250" stroke="#f4f8ff" stroke-width="18" stroke-linecap="round"/>
    <line x1="525" y1="320" x2="630" y2="250" stroke="#b90f29" stroke-width="14" stroke-linecap="round"/>
    <circle cx="512" cy="324" r="13" fill="#0a2a4f" stroke="#edf3ff" stroke-width="6"/>
    <circle cx="512" cy="324" r="4.5" fill="#edf3ff"/>
  </g>
</svg>
