<svg width="1024" height="1024" viewBox="0 0 1024 1024" xmlns="http://www.w3.org/2000/svg" role="img" aria-labelledby="title desc">
  <title id="title">APOINT SCOUT Logo</title>
  <desc id="desc">Metallic A mark with blue compass diamond.</desc>
  <defs>
    <linearGradient id="metalA" x1="230" y1="340" x2="780" y2="900" gradientUnits="userSpaceOnUse">
      <stop offset="0" stop-color="#fafbfc"/>
      <stop offset="0.42" stop-color="#eceff3"/>
      <stop offset="0.75" stop-color="#d8dde5"/>
      <stop offset="1" stop-color="#bcc4cf"/>
    </linearGradient>
    <linearGradient id="diamondBlue" x1="360" y1="160" x2="665" y2="430" gradientUnits="userSpaceOnUse">
      <stop offset="0" stop-color="#103766"/>
      <stop offset="1" stop-color="#07192f"/>
    </linearGradient>
    <filter id="softShadow" x="-20%" y="-20%" width="140%" height="140%">
      <feDropShadow dx="0" dy="10" stdDeviation="12" flood-color="#000000" flood-opacity="0.28"/>
    </filter>
  </defs>

  <g filter="url(#softShadow)">
    <polygon fill="url(#metalA)" points="174,906 322,906 430,482 342,482"/>
    <polygon fill="url(#metalA)" points="598,482 684,482 850,906 706,906"/>
    <polygon fill="url(#metalA)" points="296,770 730,770 716,834 281,834"/>
    <polygon fill="url(#metalA)" points="160,906 332,906 324,946 142,946"/>
    <polygon fill="url(#metalA)" points="690,906 866,906 884,946 698,946"/>
  </g>

  <g transform="translate(0 -6)" filter="url(#softShadow)">
    <path d="M512 170L714 332L512 494L310 332L512 170Z" fill="url(#diamondBlue)" stroke="#eef3f8" stroke-width="16" stroke-linejoin="round"/>
    <path d="M512 234C570 234 617 281 617 339C617 397 570 444 512 444C454 444 407 397 407 339C407 281 454 234 512 234Z" fill="none" stroke="#eff4f9" stroke-width="12"/>
    <line x1="512" y1="208" x2="512" y2="230" stroke="#eff4f9" stroke-width="8" stroke-linecap="round"/>
    <line x1="382" y1="339" x2="404" y2="339" stroke="#eff4f9" stroke-width="8" stroke-linecap="round"/>
    <line x1="620" y1="339" x2="642" y2="339" stroke="#eff4f9" stroke-width="8" stroke-linecap="round"/>
    <line x1="512" y1="448" x2="512" y2="470" stroke="#eff4f9" stroke-width="8" stroke-linecap="round"/>
    <polygon points="512,339 582,295 536,365" fill="#f5f8fc"/>
    <polygon points="512,339 444,385 490,316" fill="#b90f24"/>
    <circle cx="512" cy="339" r="7" fill="#f6f9fc"/>
    <path d="M492 486H532L512 508L492 486Z" fill="none" stroke="#eff4f9" stroke-width="8" stroke-linejoin="round"/>
  </g>
</svg>
